<svg xmlns="http://www.w3.org/2000/svg" xmlns:xlink="http://www.w3.org/1999/xlink" width="500" zoomAndPan="magnify" viewBox="0 0 375 374.999991" height="500" preserveAspectRatio="xMidYMid meet" version="1.0"><defs><g/></defs><g fill="#000000" fill-opacity="1"><g transform="translate(114.439165, 231.646838)"><g><path d="M 8.4375 -90.9375 L 66.640625 -90.9375 L 82.234375 -75.34375 L 82.234375 -15.59375 L 66.640625 0 L 8.4375 0 Z M 57.9375 -15.0625 L 64.5625 -21.6875 L 64.5625 -69.234375 L 57.9375 -75.859375 L 26.109375 -75.859375 L 26.109375 -15.0625 Z M 57.9375 -15.0625 "/></g></g></g><g fill="#000000" fill-opacity="1"><g transform="translate(177.822859, 231.646838)"><g><path d="M 6.5 -14.03125 L 6.5 -27.015625 L 23.90625 -27.015625 L 23.90625 -19.359375 L 28.1875 -15.0625 L 55.078125 -15.0625 L 59.5 -19.484375 L 59.5 -34.5625 L 55.203125 -38.84375 L 20.78125 -38.84375 L 6.75 -52.875 L 6.75 -76.90625 L 20.78125 -90.9375 L 61.828125 -90.9375 L 75.859375 -76.90625 L 75.859375 -63.78125 L 58.453125 -63.78125 L 58.453125 -71.578125 L 54.171875 -75.859375 L 28.453125 -75.859375 L 24.15625 -71.578125 L 24.15625 -58.203125 L 28.453125 -53.90625 L 62.875 -53.90625 L 76.90625 -39.875 L 76.90625 -14.296875 L 62.609375 0 L 20.53125 0 Z M 6.5 -14.03125 "/></g></g></g></svg>